<?xml version="1.0" encoding="utf-8"?>
<svg version="1.1" id="Layer_1"
xmlns="http://www.w3.org/2000/svg"
xmlns:xlink="http://www.w3.org/1999/xlink"
width="72px" height="74px"
xml:space="preserve">
<g id="PathID_13" transform="matrix(1.28472, 0, 0, 1.07081, 5.2, 3.65)" opacity="1">
<path style="fill:#FFFFFF;fill-opacity:1" d="M44.55 15.55Q45.2 16.2 45.25 17.05L47.45 59.6Q47.45 60.55 46.8 61.15Q46.15 61.8 45.25 61.8L2.2 61.8Q1.25 61.8 0.6 61.15Q-0.1 60.45 0 59.5L2.2 17.05Q2.25 16.2 2.85 15.55Q3.5 14.95 4.4 14.95L10.85 14.95L10.85 12.85Q10.85 7.55 14.65 3.8Q18.4 0 23.7 0Q29 0 32.8 3.8Q36.55 7.55 36.55 12.85L36.55 14.95L43.05 14.95Q43.9 14.95 44.55 15.55M30 12.85Q30 10.25 28.15 8.45Q26.3 6.6 23.7 6.6Q21.1 6.6 19.3 8.45Q17.45 10.25 17.45 12.85L17.45 14.95L30 14.95L30 12.85" />
</g>
<g id="PathID_14" transform="matrix(1.28472, 0, 0, 1.07081, 5.2, 3.65)" opacity="1">
</g>
<g id="PathID_15" transform="matrix(0.294748, 0, 0, 0.24567, 36.2, 45.55)" opacity="1">
<path style="fill:#000000;fill-opacity:1" d="M36 -36.1Q51 -21.1 51 0Q51 21.1 36 36Q21.1 51 0 51Q-21.1 51 -36.1 36Q-51 21.1 -51 0Q-51 -21.1 -36.1 -36.1Q-21.1 -51 0 -51Q21.1 -51 36 -36.1" />
</g>
<g id="PathID_16" transform="matrix(0.294748, 0, 0, 0.24567, 36.2, 45.55)" opacity="1">
</g>
<g id="PathID_17" transform="matrix(0.494262, 0, 0, 0.411964, 25.65, 37.15)" opacity="1">
<path style="fill:#FFFFFF;fill-opacity:1" d="M40.75 23.25Q36.65 23.5 32.75 22.1Q28.95 20.8 25.95 18.1L25.65 17.55Q25.65 17.25 25.9 17L35.65 7.5Q35.85 7.3 36.25 7.3L36.8 7.55Q41.55 13.4 41.55 20.8L41.45 22.55Q41.45 23.25 40.75 23.25M40.9 25.85Q39.75 30.65 36.35 34.55Q36.2 34.8 35.8 34.8L35.25 34.55L22.45 21.4L22.25 20.85Q22.25 20.55 22.5 20.3L23.65 19.2L24.7 19.15Q27.95 22.15 32.3 23.7Q36 25 40.15 24.9Q40.6 24.9 40.8 25.2L40.9 25.85M34.55 6.35L24.75 15.8L24.2 16L23.65 15.75Q21 12.5 19.85 8.8Q18.85 5.7 18.85 2.55L18.95 0.75Q19.05 0.15 19.7 0.05Q23.8 -0.15 27.6 1.2Q31.45 2.5 34.5 5.2L34.75 5.75L34.55 6.35M22.5 18L21.35 19.1Q20.8 19.65 20.25 19.1L7.5 5.95L7.25 5.35L7.55 4.8Q11.5 1.55 16.35 0.55Q16.75 0.45 17 0.7L17.3 1.3L17.25 2.5Q17.25 5.9 18.25 9.2Q19.6 13.45 22.55 16.95Q23 17.6 22.5 18M21.3 22.5L34.1 35.7L34.3 36.3L34 36.85Q29.9 40.25 24.55 41.25L23.95 41.1Q23.65 40.9 23.65 40.5L23.65 38.25Q23.2 31 18.4 25.25L18.2 24.75Q18.2 24.45 18.45 24.2L20.2 22.5L20.75 22.3L21.3 22.5M6.3 7.05L19.1 20.25L19.3 20.8L19.05 21.35L17.3 23.05Q16.8 23.6 16.25 23.05Q9.8 17.3 1.25 17.3L0.65 17.05Q0.4 16.75 0.5 16.4Q1.65 11.1 5.2 7.1Q5.35 6.85 5.75 6.85Q6.05 6.8 6.3 7.05M0.05 19.7Q0.05 19.05 0.8 18.95Q4.75 18.9 8.4 20.2Q12.1 21.55 15 24.15L15.25 24.7L15 25.25L5.9 34.1L5.3 34.35L4.75 34.05Q0 28.3 0 20.8L0.05 19.7M16.75 26.2L17.3 26.5Q21.55 31.6 22 38.3L22 40.85Q22 41.5 21.25 41.6L20.45 41.6Q12.8 41.45 7.05 36.4L6.8 35.85L7.05 35.3L16.15 26.45Q16.4 26.2 16.75 26.2" />
</g>
<g id="PathID_18" transform="matrix(0.494262, 0, 0, 0.411964, 25.65, 37.15)" opacity="1">
</g>
</svg>
