<?xml version="1.0" encoding="utf-8"?>
<svg version="1.1" id="Layer_1"
xmlns="http://www.w3.org/2000/svg"
xmlns:xlink="http://www.w3.org/1999/xlink"
width="247px" height="318px"
xml:space="preserve">
<g id="PathID_1" transform="matrix(4.97544, 0, 0, 4.97544, 5.1, 5)" opacity="1">
<path style="fill:#FFFFFF;fill-opacity:1" d="M44.55 15.55Q45.2 16.2 45.25 17.05L47.45 59.6Q47.45 60.55 46.8 61.15Q46.15 61.8 45.25 61.8L2.2 61.8Q1.25 61.8 0.6 61.15Q-0.1 60.45 0 59.5L2.2 17.05Q2.25 16.2 2.85 15.55Q3.5 14.95 4.4 14.95L10.85 14.95L10.85 12.85Q10.85 7.55 14.65 3.8Q18.4 0 23.7 0Q29 0 32.8 3.8Q36.55 7.55 36.55 12.85L36.55 14.95L43.05 14.95Q43.9 14.95 44.55 15.55M30 12.85Q30 10.25 28.15 8.45Q26.3 6.6 23.7 6.6Q21.1 6.6 19.3 8.45Q17.45 10.25 17.45 12.85L17.45 14.95L30 14.95L30 12.85" />
</g>
<g id="PathID_2" transform="matrix(4.97544, 0, 0, 4.97544, 5.1, 5)" opacity="1">
</g>
<g id="PathID_3" transform="matrix(1.14149, 0, 0, 1.14149, 125.1, 199.75)" opacity="1">
<path style="fill:#000000;fill-opacity:1" d="M36 -36.1Q51 -21.1 51 0Q51 21.1 36 36Q21.1 51 0 51Q-21.1 51 -36.1 36Q-51 21.1 -51 0Q-51 -21.1 -36.1 -36.1Q-21.1 -51 0 -51Q21.1 -51 36 -36.1" />
</g>
<g id="PathID_4" transform="matrix(1.14149, 0, 0, 1.14149, 125.1, 199.75)" opacity="1">
</g>
<g id="PathID_5" transform="matrix(1.875, 0, 0, 1.875, 85.7, 236.2)" opacity="1">
<path style="fill:#FFFFFF;fill-opacity:1" d="M3.5 -7.1Q3.65 -4.1 5 -4.1Q6.7 -4.1 7.3 -6.7L13 -31.45Q13.2 -32.2 13.2 -32.7Q13.2 -33.9 12.1 -33.9Q10.6 -33.9 9 -30.85L7.85 -30.85Q8.45 -34.1 9.95 -36Q11.95 -38.5 15.05 -38.5Q18 -38.5 19.05 -35.8Q19.35 -35.1 19.35 -34.2Q19.35 -33.05 18.9 -31.25L15.15 -15.6Q27.3 -22.1 32.9 -31.1Q31.95 -31.1 31 -32.2Q30.4 -33 30.4 -34.05L30.5 -34.95Q30.85 -36.4 32.1 -37.45Q33.4 -38.5 34.8 -38.5Q36.25 -38.5 37.25 -37.35Q38 -36.5 38 -35.3Q38 -34.7 37.8 -34.05Q37.45 -32.6 36.5 -30.9Q31.1 -21.25 22.5 -17.15Q27.55 -17.15 28.95 -11.9L31 -4Q31.45 -2.15 33.1 -2.15Q34.2 -2.15 35.35 -3.15Q36.15 -3.85 36.9 -4.85L37.95 -4.85Q36.9 -1.2 34.7 0.9Q32.45 3 30.4 3Q27 3 26.1 -0.3L23.45 -9.7Q22.5 -13.3 19.1 -13.3Q16.85 -13.3 14.2 -10.8L13.2 -6.5Q12.55 -3.65 11.3 -2.05Q9.3 0.5 6.25 0.5Q3.05 0.5 2.15 -2.1Q1.85 -3.05 1.85 -4.2Q1.85 -5.4 2.2 -7.1L3.5 -7.1" />
</g>
<g id="PathID_6" transform="matrix(1.875, 0, 0, 1.875, 85.7, 236.2)" opacity="1">
</g>
</svg>
